<?xml version="1.0" encoding="UTF-8"?>
<!DOCTYPE svg PUBLIC "-//W3C//DTD SVG 1.1//EN" "http://www.w3.org/Graphics/SVG/1.1/DTD/svg11.dtd">
<svg width="100px" height="100px" viewBox="0 0 120 120" version="1.1" xmlns="http://www.w3.org/2000/svg" xmlns:xlink="http://www.w3.org/1999/xlink" xml:space="preserve" xmlns:serif="http://www.serif.com/" style="fill-rule:evenodd;clip-rule:evenodd;stroke-linejoin:round;stroke-miterlimit:1.41421;">
    <g>
        <path d="M87.18,12.848C90.782,14.9 93.779,17.868 95.865,21.451L111.332,48.192C115.524,55.504 115.502,64.494 111.276,71.786L95.865,98.517C91.644,105.803 83.863,110.289 75.443,110.293L44.565,110.283C36.146,110.29 28.363,105.803 24.15,98.514L8.683,71.772C4.492,64.474 4.492,55.5 8.682,48.201L24.093,21.47C28.334,14.177 36.141,9.699 44.578,9.719L75.45,9.682C79.57,9.694 83.614,10.786 87.18,12.848" style="fill:rgb(241,242,243);fill-rule:nonzero;"/>
        <path d="M30.74,110.751C34.949,113.175 39.721,114.451 44.579,114.449L75.435,114.458C85.345,114.452 94.501,109.169 99.466,100.593L114.877,73.862C119.811,65.281 119.811,54.722 114.875,46.142L99.412,19.393C94.456,10.822 85.304,5.546 75.404,5.552L44.526,5.542C34.63,5.564 25.492,10.843 20.53,19.405L5.119,46.136C0.187,54.72 0.191,65.28 5.13,73.86L20.572,100.587C23.008,104.81 26.516,108.316 30.74,110.751M34.892,103.548C31.937,101.846 29.485,99.394 27.784,96.439L12.316,69.698C8.85,63.691 8.849,56.291 12.313,50.283L27.724,23.552C31.204,17.54 37.633,13.846 44.579,13.868L75.458,13.877C82.392,13.883 88.8,17.577 92.28,23.575L107.67,50.316C111.135,56.316 111.136,63.708 107.674,69.71L92.264,96.441C88.793,102.449 82.38,106.148 75.441,106.145L44.563,106.135C41.168,106.134 37.834,105.242 34.892,103.548" style="fill:rgb(39,66,75);fill-rule:nonzero;"/>
        <path d="M104.736,53.665L88.452,25.527C87.245,23.436 85.5,21.706 83.398,20.518L37.375,100.237C39.457,101.461 41.829,102.109 44.245,102.113L76.772,102.114C81.606,102.109 86.071,99.531 88.493,95.348L104.72,67.201C107.141,63.016 107.148,57.856 104.736,53.665" style="fill:rgb(233,236,238);fill-rule:nonzero;"/>
        <path d="M65.847,97.225L65.847,97.215C65.846,96.26 66.619,95.485 67.575,95.483L73.021,95.477C73.977,95.476 74.752,96.25 74.753,97.205L74.753,97.214C74.754,98.17 73.981,98.945 73.026,98.946L67.579,98.952C66.623,98.953 65.848,98.18 65.847,97.225" style="fill:white;fill-rule:nonzero;"/>
        <path d="M76.319,97.217L76.319,97.208C76.318,96.253 77.091,95.477 78.047,95.476L78.859,95.475C79.814,95.474 80.589,96.248 80.59,97.203L80.59,97.212C80.592,98.168 79.818,98.943 78.863,98.944L78.051,98.945C77.095,98.946 76.32,98.172 76.319,97.217" style="fill:white;fill-rule:nonzero;"/>
        <path d="M79.048,36.731L67.552,56.672C66.838,57.911 67.263,59.494 68.502,60.209L93.231,74.464C95.444,75.705 96.38,78.405 95.409,80.749C95.336,80.919 95.254,81.084 95.163,81.244C93.811,83.625 90.784,84.46 88.402,83.108L63.566,68.79C63.564,68.788 63.561,68.787 63.558,68.785C62.326,68.081 60.755,68.509 60.051,69.741L43.7,98.104C42.331,100.467 39.309,101.279 36.939,99.92L36.959,99.887C36.786,99.804 36.62,99.708 36.462,99.6C34.444,98.062 33.895,95.258 35.184,93.073L51.478,64.81C52.192,63.571 51.767,61.987 50.528,61.273L25.692,46.955C24.469,46.251 23.608,45.055 23.327,43.672C23.066,42.434 23.292,41.143 23.957,40.067C25.388,37.75 28.426,37.031 30.743,38.462L55.471,52.718C56.063,53.061 56.768,53.154 57.429,52.975C58.091,52.795 58.652,52.354 58.983,51.753L70.433,31.891C70.113,30.375 70.336,28.738 71.185,27.297L73.475,23.323C75.275,20.286 79.18,19.256 82.243,21.01L82.467,21.139C82.467,21.139 82.467,21.139 82.467,21.139C85.533,22.943 86.555,26.891 84.752,29.956L82.461,33.93C81.656,35.288 80.431,36.245 79.048,36.731ZM57.517,64.188C55.583,63.073 54.919,60.602 56.034,58.667C57.149,56.734 59.62,56.069 61.554,57.184C63.488,58.299 64.152,60.771 63.037,62.705C61.922,64.639 59.451,65.303 57.517,64.188Z" style="fill:rgb(39,66,75);fill-rule:nonzero;"/>
        <path d="M57.517,64.188C55.583,63.073 54.919,60.602 56.034,58.667C57.149,56.734 59.62,56.069 61.554,57.184C63.488,58.299 64.152,60.771 63.037,62.705C61.922,64.639 59.451,65.303 57.517,64.188" style="fill:rgb(233,236,238);fill-rule:nonzero;"/>
        <path d="M57.517,64.188C55.583,63.073 54.919,60.602 56.034,58.667C57.149,56.734 59.62,56.069 61.554,57.184C63.488,58.299 64.152,60.771 63.037,62.705C61.922,64.639 59.451,65.303 57.517,64.188" style="fill:rgb(39,66,75);fill-opacity:0.2;fill-rule:nonzero;"/>
        <path d="M41.619,91.764C40.938,91.371 40.704,90.501 41.097,89.819L53.668,68.014C54.061,67.332 54.931,67.099 55.612,67.491C56.294,67.884 56.527,68.755 56.135,69.436L43.564,91.242C43.171,91.923 42.3,92.157 41.619,91.764" style="fill:rgb(56,91,102);fill-rule:nonzero;"/>
        <path d="M66.527,64.783L66.565,64.717C66.947,64.054 67.795,63.826 68.458,64.209L91.364,77.414C92.027,77.796 92.255,78.644 91.873,79.307L91.835,79.373C91.452,80.036 90.605,80.263 89.942,79.881L67.035,66.675C66.372,66.293 66.145,65.446 66.527,64.783" style="fill:rgb(56,91,102);fill-rule:nonzero;"/>
        <path d="M27.233,42.119L27.272,42.053C27.654,41.39 28.501,41.163 29.164,41.545L52.071,54.75C52.734,55.133 52.961,55.98 52.579,56.643L52.541,56.709C52.159,57.372 51.312,57.6 50.649,57.218L27.742,44.012C27.079,43.63 26.851,42.782 27.233,42.119" style="fill:rgb(56,91,102);fill-rule:nonzero;"/>
        <path d="M63.439,53.914C62.758,53.522 62.524,52.651 62.917,51.97L71.46,37.151C71.853,36.47 72.723,36.236 73.405,36.629C74.086,37.022 74.32,37.892 73.927,38.573L65.384,53.392C64.991,54.073 64.121,54.307 63.439,53.914" style="fill:rgb(56,91,102);fill-rule:nonzero;"/>
        <path d="M75.468,33.164L75.269,33.049C73.898,32.259 73.427,30.506 74.218,29.134L76.509,25.16C77.299,23.789 79.052,23.318 80.424,24.108L80.623,24.223C81.994,25.014 82.465,26.767 81.674,28.138L79.384,32.112C78.593,33.484 76.84,33.955 75.468,33.164Z" style="fill:rgb(255,210,12);fill-rule:nonzero;"/>
        <path d="M64.914,23.461C64.025,21.618 62.253,20.358 60.219,20.126L55.162,19.56C52.446,19.208 49.76,20.399 48.198,22.649L46.479,25.783C44.705,28.545 45.505,32.222 48.267,33.996C49.036,34.491 49.909,34.801 50.818,34.902L56.359,35.527C59.353,35.863 61.674,33.826 62.868,31.889L64.523,29.248C65.647,27.517 65.795,25.327 64.914,23.461" style="fill:rgb(39,66,75);fill-rule:nonzero;"/>
        <path d="M57.826,22.016L58.248,22.259C59.492,22.976 59.919,24.565 59.202,25.809L58.352,27.282C57.635,28.526 56.046,28.953 54.802,28.236L54.38,27.993C53.137,27.276 52.71,25.686 53.427,24.443L54.276,22.969C54.993,21.726 56.583,21.299 57.826,22.016" style="fill:white;fill-rule:nonzero;"/>
        <path d="M89.021,37.359C91.062,37.204 93.04,38.107 94.26,39.751L97.284,43.843C98.946,46.019 99.261,48.938 98.101,51.418L96.286,54.452C94.785,57.372 91.201,58.521 88.282,57.021C87.469,56.602 86.763,56.002 86.219,55.267L82.894,50.78C81.081,48.301 81.718,45.282 82.766,43.272L84.223,40.516C85.175,38.711 86.986,37.519 89.021,37.359" style="fill:rgb(39,66,75);fill-rule:nonzero;"/>
        <path d="M90.344,48.777L89.922,48.534C88.678,47.817 88.251,46.227 88.968,44.984L89.817,43.51C90.534,42.267 92.124,41.839 93.367,42.557L93.789,42.8C95.033,43.517 95.46,45.106 94.743,46.35L93.894,47.823C93.177,49.067 91.587,49.494 90.344,48.777" style="fill:white;fill-rule:nonzero;"/>
    </g>
</svg>
