<?xml version="1.0" encoding="UTF-8"?>
<!DOCTYPE svg PUBLIC "-//W3C//DTD SVG 1.1//EN" "http://www.w3.org/Graphics/SVG/1.1/DTD/svg11.dtd">
<svg width="30px" height="30px" version="1.1" xmlns="http://www.w3.org/2000/svg" xmlns:xlink="http://www.w3.org/1999/xlink" xml:space="preserve" xmlns:serif="http://www.serif.com/" style="fill-rule:evenodd;clip-rule:evenodd;stroke-linejoin:round;stroke-miterlimit:1.41421;">
    <g transform="matrix(0.392001,0,0,0.392001,-0.680048,-0.683798)">
        <g transform="matrix(-0.0539445,-0.0833606,0.0828773,-0.0536317,77.2097,36.2026)">
            <path d="M0,-673.091C-27.833,-658.86 -51.437,-637.563 -68.444,-611.334L-176.578,-444.78C-211.256,-391.261 -214.809,-323.326 -185.904,-266.481L-95.572,-89.648C-66.532,-32.948 -9.53,4.032 54.082,7.439L252.658,17.662C316.288,20.931 376.829,-9.995 411.475,-63.466L519.69,-230.132C554.234,-283.631 557.744,-351.457 528.907,-408.236L438.576,-585.07C409.509,-641.767 352.489,-678.734 288.866,-682.128L90.482,-692.381C59.15,-694.022 27.938,-687.368 0,-673.091M24.339,-625.446C43.876,-635.433 65.705,-640.081 87.616,-638.918L286.164,-628.75C330.736,-626.422 370.687,-600.509 390.985,-560.759L481.317,-383.925C501.584,-344.077 499.006,-296.434 474.557,-259.005L366.341,-92.34C342.021,-54.922 299.631,-33.267 255.06,-35.494L56.784,-46.078C12.258,-48.39 -27.655,-74.275 -47.928,-113.986L-138.26,-290.82C-158.535,-330.603 -156.041,-378.183 -131.718,-415.629L-23.502,-582.294C-11.607,-600.618 4.889,-615.498 24.339,-625.446" style="fill:rgb(39,66,75);fill-opacity:0.203922;fill-rule:nonzero;"/>
        </g>
        <g transform="matrix(-0.0500234,-0.0773013,0.0773013,-0.0500234,7.81788,43.3499)">
            <path d="M0,625.107C-23.697,637.366 -50.214,643.145 -76.863,641.859L-275.411,631.69C-329.564,628.706 -378.025,597.095 -402.584,548.739L-492.916,371.905C-517.464,323.598 -514.43,265.875 -484.954,220.406L-376.738,53.741C-347.286,8.263 -295.8,-18.038 -241.689,-15.246L-43.142,-5.077C10.938,-2.135 59.388,29.301 84.11,77.489L174.442,254.323C198.955,302.764 195.785,360.599 166.125,406.072L58.186,572.873C43.689,595.071 23.628,613.081 0,625.107" style="fill:rgb(241,242,243);fill-rule:nonzero;"/>
        </g>
        <g transform="matrix(-0.0500234,-0.0773013,0.0773013,-0.0500234,74.6561,36.3808)">
            <path d="M0,-673.091C-27.833,-658.86 -51.437,-637.563 -68.444,-611.334L-176.578,-444.78C-211.256,-391.261 -214.809,-323.326 -185.904,-266.481L-95.572,-89.648C-66.532,-32.948 -9.53,4.032 54.082,7.439L252.658,17.662C316.288,20.931 376.829,-9.995 411.475,-63.466L519.69,-230.132C554.234,-283.631 557.744,-351.457 528.907,-408.236L438.576,-585.07C409.509,-641.767 352.489,-678.734 288.866,-682.128L90.482,-692.381C59.15,-694.022 27.938,-687.368 0,-673.091M24.339,-625.446C43.876,-635.433 65.705,-640.081 87.616,-638.918L286.164,-628.75C330.736,-626.422 370.687,-600.509 390.985,-560.759L481.317,-383.925C501.584,-344.077 499.006,-296.434 474.557,-259.005L366.341,-92.34C342.021,-54.922 299.631,-33.267 255.06,-35.494L56.784,-46.078C12.258,-48.39 -27.655,-74.275 -47.928,-113.986L-138.26,-290.82C-158.535,-330.603 -156.041,-378.183 -131.718,-415.629L-23.502,-582.294C-11.607,-600.618 4.889,-615.498 24.339,-625.446" style="fill:rgb(39,66,75);fill-rule:nonzero;"/>
        </g>
        <path d="M46.202,23.352C46.014,22.453 46.147,21.483 46.651,20.63L48.011,18.277C49.08,16.478 51.394,15.871 53.208,16.913L53.34,16.989L53.341,16.989C55.156,18.06 55.759,20.4 54.688,22.216L53.328,24.569C52.85,25.373 52.123,25.939 51.304,26.226L44.477,38.033C44.053,38.767 44.304,39.706 45.038,40.13L59.68,48.595C60.991,49.331 61.544,50.932 60.966,52.321C60.923,52.421 60.875,52.518 60.821,52.613C60.018,54.024 58.223,54.516 56.813,53.713L42.107,45.211C42.105,45.21 42.104,45.209 42.102,45.208C41.372,44.79 40.441,45.042 40.023,45.772L30.314,62.566C29.501,63.966 27.71,64.445 26.307,63.638L26.318,63.618C26.216,63.569 26.118,63.512 26.024,63.448C24.829,62.535 24.506,60.873 25.272,59.58L34.947,42.844C35.371,42.11 35.12,41.172 34.386,40.748L19.68,32.246C18.956,31.827 18.447,31.118 18.281,30.299C18.128,29.565 18.262,28.8 18.657,28.163C19.506,26.791 21.307,26.367 22.679,27.217L37.321,35.682C37.672,35.885 38.09,35.941 38.482,35.836C38.874,35.73 39.207,35.469 39.403,35.113L46.202,23.352Z" style="fill:rgb(39,66,75);fill-rule:nonzero;"/>
        <g transform="matrix(-0.0500234,-0.0773013,0.0773013,-0.0500234,42.1069,40.1623)">
            <path d="M0,-46.331C12.794,-52.866 28.463,-47.793 34.999,-34.999C41.534,-22.205 36.461,-6.535 23.667,0C10.873,6.535 -4.797,1.462 -11.332,-11.332C-17.867,-24.126 -12.794,-39.795 0,-46.331" style="fill:rgb(233,236,238);fill-rule:nonzero;"/>
        </g>
        <g transform="matrix(-0.0500234,-0.0773013,0.0773013,-0.0500234,42.1069,40.1623)">
            <path d="M0,-46.331C12.794,-52.866 28.463,-47.793 34.999,-34.999C41.534,-22.205 36.461,-6.535 23.667,0C10.873,6.535 -4.797,1.462 -11.332,-11.332C-17.867,-24.126 -12.794,-39.795 0,-46.331" style="fill:rgb(38,65,74);fill-opacity:0.2;fill-rule:nonzero;"/>
        </g>
        <path d="M49.185,24.109L49.067,24.041C48.255,23.572 47.977,22.533 48.447,21.721L49.807,19.368C50.277,18.556 51.316,18.278 52.128,18.747L52.246,18.815C53.058,19.285 53.336,20.324 52.866,21.136L51.506,23.489C51.036,24.301 49.997,24.579 49.185,24.109Z" style="fill:rgb(255,210,12);fill-rule:nonzero;"/>
        <g transform="matrix(-0.0500234,-0.0773013,0.0773013,-0.0500234,32.5946,25.0461)">
            <path d="M0,133.805C13.068,135.466 26.075,130.308 34.453,120.142L55.219,94.825C66.638,81.397 69.617,62.723 62.942,46.409L52.041,26.151C43.347,6.898 20.69,-1.661 1.437,7.034C-3.925,9.455 -8.656,13.081 -12.389,17.63L-35.169,45.357C-47.471,60.342 -44.606,80.009 -38.331,93.24L-29.869,111.428C-24.464,123.56 -13.162,132.028 0,133.805" style="fill:rgb(39,66,75);fill-rule:nonzero;"/>
        </g>
        <g transform="matrix(-0.0500234,-0.0773013,0.0773013,-0.0500234,35.8957,19.5013)">
            <path d="M0,38.113L-2.793,39.54C-11.02,43.742 -21.096,40.48 -25.298,32.253L-30.277,22.505C-34.48,14.278 -31.218,4.202 -22.991,0L-20.198,-1.427C-11.972,-5.629 -1.896,-2.367 2.308,5.86L7.287,15.608C11.489,23.835 8.227,33.911 0,38.113" style="fill:white;fill-rule:nonzero;"/>
        </g>
        <g transform="matrix(-0.0500234,-0.0773013,0.0773013,-0.0500234,52.7333,29.5038)">
            <path d="M0,57.946C-6.313,69.509 -18.116,77.023 -31.264,77.852L-63.947,79.84C-81.515,81.193 -98.377,72.669 -107.703,57.719L-117.726,37.29C-128.229,18.961 -121.884,-4.412 -103.555,-14.916C-98.449,-17.841 -92.738,-19.549 -86.865,-19.908L-50.993,-22.142C-31.256,-23.247 -17.191,-9.233 -10.014,3.467L-0.236,20.984C6.174,32.45 6.263,46.399 0,57.946" style="fill:rgb(39,66,75);fill-rule:nonzero;"/>
        </g>
        <g transform="matrix(-0.0500234,-0.0773013,0.0773013,-0.0500234,60.8352,31.5866)">
            <path d="M0,-38.112L2.793,-39.539C11.02,-43.742 21.096,-40.479 25.298,-32.253L30.278,-22.505C34.48,-14.278 31.218,-4.202 22.991,0L20.198,1.427C11.972,5.63 1.896,2.367 -2.307,-5.859L-7.286,-15.607C-11.489,-23.834 -8.227,-33.91 0,-38.112" style="fill:white;fill-rule:nonzero;"/>
        </g>
    </g>
</svg>
